<?xml version="1.0" standalone="no"?>
<!DOCTYPE svg PUBLIC "-//W3C//DTD SVG 20010904//EN"
 "http://www.w3.org/TR/2001/REC-SVG-20010904/DTD/svg10.dtd">
<svg version="1.0" xmlns="http://www.w3.org/2000/svg"
 width="512.000000pt" height="221.000000pt" viewBox="0 0 512.000000 221.000000"
 preserveAspectRatio="xMidYMid meet">
<metadata>
Created by potrace 1.15, written by Peter Selinger 2001-2017
</metadata>
<g transform="translate(0.000000,221.000000) scale(0.100000,-0.100000)"
fill="#000000" stroke="none">
<path d="M0 1105 l0 -1105 2560 0 2560 0 0 1105 0 1105 -2560 0 -2560 0 0
-1105z m2260 705 l0 -40 -50 0 -50 0 0 -165 0 -165 -50 0 -50 0 0 165 0 165
-50 0 -50 0 0 40 0 40 150 0 150 0 0 -40z m-1007 -37 c110 -39 181 -81 268
-161 117 -108 191 -239 223 -394 53 -254 -31 -513 -223 -690 -87 -80 -158
-122 -268 -161 -74 -26 -107 -31 -210 -35 -109 -4 -131 -2 -212 22 -146 42
-240 95 -338 193 -79 79 -145 186 -179 289 -27 82 -29 101 -29 234 0 133 2
152 29 233 77 235 258 406 508 482 74 22 97 25 213 22 115 -3 140 -7 218 -34z
m1212 -87 c19 -8 35 -11 35 -5 0 5 20 9 45 9 l45 0 0 -125 0 -125 -44 0 c-24
0 -46 5 -48 10 -2 7 -16 5 -36 -6 -46 -23 -97 -11 -140 32 -33 33 -34 37 -30
94 5 65 23 94 73 116 39 17 58 17 100 0z m405 4 c19 -10 19 -12 3 -46 -15 -31
-21 -35 -46 -30 -55 11 -67 -5 -67 -94 l0 -80 -50 0 -50 0 0 125 0 125 50 0
c28 0 50 -5 50 -10 0 -6 12 -4 28 4 32 18 56 20 82 6z m220 -5 c17 -9 30 -11
30 -5 0 5 20 10 45 10 l45 0 0 -125 0 -125 -45 0 c-25 0 -45 4 -45 9 0 5 -20
1 -44 -7 -38 -14 -47 -14 -82 -1 -50 19 -84 69 -84 123 0 99 97 164 180 121z
m440 1 c0 -3 -25 -40 -55 -84 -30 -44 -55 -83 -55 -86 0 -3 24 -6 53 -8 51 -3
52 -4 55 -35 l3 -33 -136 0 c-106 0 -135 3 -129 13 4 6 32 47 62 90 l54 77
-51 0 -51 0 0 35 0 35 125 0 c69 0 125 -2 125 -4z m-480 -558 l0 -132 43 42
c41 40 46 42 102 42 l59 0 -59 -60 -59 -60 64 -65 64 -65 -59 0 c-57 0 -61 2
-107 47 l-48 47 0 -47 0 -47 -45 0 -45 0 0 215 0 215 45 0 45 0 0 -132z m878
34 c2 -80 5 -93 18 -88 63 24 119 12 159 -35 20 -25 25 -41 25 -86 0 -49 -4
-59 -33 -88 -42 -42 -93 -53 -139 -31 -20 11 -34 13 -36 6 -2 -5 -24 -10 -48
-10 l-44 0 0 208 c0 115 3 212 7 216 4 4 25 6 48 4 l40 -3 3 -93z m712 -117
l0 -215 -45 0 -45 0 0 215 0 215 45 0 45 0 0 -215z m168 -2 l2 -213 -50 0 -50
0 0 208 c0 115 3 212 7 216 4 4 25 6 48 4 l40 -3 3 -212z m-2596 168 c28 -25
33 -36 33 -75 0 -29 -6 -51 -17 -62 -15 -16 -14 -19 18 -49 29 -28 34 -39 34
-79 0 -36 -6 -52 -29 -78 l-29 -33 -116 -3 -116 -4 0 206 0 206 95 0 c91 0 96
-1 127 -29z m1508 -81 c0 -49 1 -50 30 -50 28 0 30 -3 30 -35 0 -32 -2 -35
-30 -35 -26 0 -30 -4 -30 -27 0 -46 11 -73 29 -73 11 0 22 -13 29 -36 10 -33
9 -36 -16 -45 -35 -14 -85 -3 -108 22 -13 15 -20 40 -22 90 -3 50 -8 69 -18
69 -9 0 -14 12 -14 35 0 24 5 35 15 35 11 0 15 12 15 50 l0 50 45 0 45 0 0
-50z m-1220 -55 c17 -9 30 -11 30 -5 0 5 20 10 45 10 l45 0 0 -125 0 -125 -45
0 c-25 0 -45 4 -45 9 0 5 -20 1 -44 -7 -38 -14 -47 -14 -82 -1 -50 19 -84 69
-84 123 0 99 97 164 180 121z m384 -5 c6 -6 5 -18 -4 -34 -12 -23 -17 -25 -56
-19 -24 3 -44 2 -44 -3 0 -5 24 -20 53 -34 62 -30 81 -65 56 -108 -27 -49
-143 -66 -194 -28 -16 12 -16 14 -1 44 16 32 17 32 47 16 30 -15 59 -13 59 4
0 4 -18 16 -40 26 -80 35 -89 102 -19 139 36 19 122 18 143 -3z m622 -7 c26
-17 54 -67 54 -98 0 -12 -16 -15 -90 -15 -67 0 -90 -3 -90 -13 0 -34 51 -48
92 -26 21 11 78 -5 78 -22 0 -16 -45 -50 -81 -61 -57 -16 -107 -2 -152 43 -38
37 -39 42 -35 89 6 56 32 93 83 116 37 17 105 11 141 -13z m847 13 c15 -8 27
-11 27 -5 0 5 20 9 45 9 l45 0 0 -125 0 -125 -45 0 c-25 0 -45 5 -45 10 0 6
-13 4 -30 -5 -38 -20 -68 -19 -109 3 -40 21 -71 73 -71 117 0 44 31 96 71 117
41 22 75 23 112 4z"/>
<path d="M852 1700 c-76 -20 -186 -73 -236 -115 l-30 -24 58 -58 c32 -32 69
-76 82 -99 31 -53 70 -167 79 -232 l7 -52 79 0 79 0 0 300 0 300 -22 -1 c-13
0 -56 -9 -96 -19z"/>
<path d="M1060 1421 l0 -301 90 0 90 0 0 28 c1 104 68 258 153 346 l58 61 -36
31 c-66 58 -199 114 -307 129 l-48 7 0 -301z"/>
<path d="M483 1442 c-43 -63 -88 -165 -102 -230 -21 -100 -35 -92 164 -92
l174 0 -5 33 c-21 129 -73 236 -142 297 -25 22 -48 40 -51 40 -3 0 -20 -21
-38 -48z"/>
<path d="M1458 1432 c-56 -60 -93 -130 -113 -214 -25 -107 -39 -98 155 -98
l170 0 -6 43 c-16 111 -107 307 -145 315 -9 1 -36 -19 -61 -46z"/>
<path d="M370 997 c0 -75 78 -265 139 -337 l30 -35 28 21 c71 53 134 187 149
317 l6 57 -176 0 -176 0 0 -23z"/>
<path d="M806 954 c-14 -140 -73 -272 -155 -352 -38 -37 -39 -40 -23 -55 38
-34 153 -88 227 -107 128 -33 115 -65 115 280 l0 300 -79 0 -78 0 -7 -66z"/>
<path d="M1060 719 l0 -301 48 7 c98 14 218 62 292 117 l29 21 -49 54 c-79 86
-118 185 -145 366 l-6 37 -84 0 -85 0 0 -301z"/>
<path d="M1330 983 c1 -104 59 -250 128 -316 l39 -39 36 44 c63 77 115 202
130 311 l6 37 -170 0 -169 0 0 -37z"/>
</g>
</svg>
